<svg xmlns="http://www.w3.org/2000/svg" width="16" height="16"><style type="text/css">.icon-canvas-transparent{opacity:0;fill:#F6F6F6;} .icon-vs-out{fill:#F6F6F6;} .icon-vs-action-green{fill:#388A34;} .icon-vs-action-orange{fill:#C27D1A;}</style><path class="icon-canvas-transparent" d="M16 16h-16v-16h16v16z" id="canvas"/><path class="icon-vs-out" d="M16 10.018v3.982h-2v2h-3.982v-2h-2.018v-2.586l-1.406-1.406h-2.586v-3.586l-1.5 1.5-2.508-2.508v-1.812l3.602-3.602h.813l3.008 3.008h.172l1.414-1.414 2.914 2.914-1.5 1.5 1.991 1.992h1.586v2.018h2z" id="outline"/><path class="icon-vs-action-orange" d="M7.508 9.495l.5-.495h-3.008v-4h-.992l-1.5 1.503-2-1.997 3.5-3.501 2 1.998-1 .997h3l1-.997 1.5 1.503-2.5 2.499-1.5-1.502.5-.503h-1.008v3h3.008l1-.996.992.996h-1v1.998l-.002.002h-1.98l-.51-.505z" id="iconBg"/><path class="icon-vs-action-green" d="M15 13h-2v2h-1.982v-2h-2.018v-1.982h2.018v-2.018h1.982v2.018h2v1.982z" id="notificationBg"/></svg>