<svg xmlns="http://www.w3.org/2000/svg" width="16" height="16"><style type="text/css">.icon-canvas-transparent{opacity:0;fill:#F6F6F6;} .icon-vs-out{fill:#F6F6F6;} .icon-vs-bg{fill:#424242;} .icon-vs-action-orange{fill:#C27D1A;}</style><path class="icon-canvas-transparent" d="M16 16h-16v-16h16v16z" id="canvas"/><path class="icon-vs-out" d="M16 12.5l-1.393 1.045.737 2.455h-1.677l-1.167-.875-1.167.875h-1.677l.736-2.455-1.392-1.045v-.086l-2.414-2.414h-2.586v-3.586l-1.5 1.5-2.5-2.5v-1.828l3.585-3.586h.829l3 3h.172l1.414-1.414 2.914 2.914-1.5 1.5 2.5 2.5-.5.5h.83l.6 2h2.156v1.5z" id="outline"/><path class="icon-vs-action-orange" d="M11.5 8.5l-2.5 2.5-1.5-1.5.5-.5h-3v-4h-1l-1.5 1.5-2-2 3.5-3.5 2 2-1 1h3l1-1 1.5 1.5-2.5 2.5-1.5-1.5.5-.5h-1v3h3l1-1 1.5 1.5z" id="iconBg"/><path class="icon-vs-bg" d="M14 15l-1.5-1.125-1.5 1.125.551-1.837-1.551-1.163h1.9l.6-2 .6 2h1.9l-1.551 1.163.551 1.837z" id="notificationBg"/></svg>