<svg xmlns="http://www.w3.org/2000/svg" viewBox="0 0 16 16"><style>.icon-canvas-transparent{opacity:0;fill:#f6f6f6}.icon-vs-out{fill:#f6f6f6}.icon-vs-bg{fill:#424242}.icon-vs-fg{fill:#f0eff1}</style><path class="icon-canvas-transparent" d="M16 16H0V0h16v16z" id="canvas"/><path class="icon-vs-out" d="M4 16c-.97 0-2-.701-2-2V2C2 .701 3.03 0 4 0h7.061L15 3.556V14c0 .971-.701 2-2 2H4z" id="outline"/><path class="icon-vs-bg" d="M10.641 1H3.964S3 1 3 2v12c0 1 .965 1 .965 1h9c1 0 1.035-1 1.035-1V4l-3.359-3zM13 14H4V2h6v3h3v9zm-8-2h1v1H5v-1zm4 0h1v1H9v-1zm-2 0h1v1H7v-1zm4 0h1v1h-1v-1zm-4-2h1v1H7v-1zm4 0h1v1h-1v-1zm-2 0h1v1H9v-1zm-4 0h1v1H5v-1zm3.515-.911l-2.35-2.35.707-.707L8 7.153V4h.999v3.171l1.146-1.138.707.707-2.337 2.349z" id="iconBg"/><path class="icon-vs-fg" d="M10 5V2H4v12h9V5h-3zm-4 8H5v-1h1v1zm0-2H5v-1h1v1zm2 2H7v-1h1v1zm0-2H7v-1h1v1zm2 2H9v-1h1v1zm0-2H9v-1h1v1zM8.515 9.089l-2.35-2.35.707-.707L8 7.153V4h.999v3.171l1.146-1.138.707.707-2.337 2.349zM12 13h-1v-1h1v1zm0-2h-1v-1h1v1z" id="iconFg"/></svg>