<svg xmlns="http://www.w3.org/2000/svg" viewBox="0 0 16 16"><style>.st0{opacity:0}.st0,.st1{fill:#f6f6f6}.st2{fill:#424242}.st3{fill:#f0eff1}.st4{fill:#fc0}</style><g id="outline"><path class="st0" d="M0 0h16v16H0z"/><path class="st1" d="M12.538 7H12V3.556L8.061 0H2c-.97 0-2 .701-2 2v10c0 1.299 1.03 2 2 2h5.006l-.008.016L8.029 16h7.002l.968-2.015L12.538 7z"/></g><path class="st2" d="M8.01 12H2V2h5v3h3v3.035L10.519 7H11V4L7.641 1H1.964S1 1 1 2v10c0 1 .965 1 .965 1h5.543l.502-1z" id="icon_x5F_bg"/><path class="st3" d="M10 8.035V5H7V2H2v10h6.01z" id="icon_x5F_fg"/><path class="st4" d="M11.918 8h-.781l-3.016 6.008.516.992h5.766l.484-1.008L11.918 8zm.109 6h-1v-1h1v1zm0-2h-1v-2h1v2z" id="not_x5F_bg"/><g id="not_x5F_fg"><path d="M11 10h1v2h-1zM11 13h1v1h-1z"/></g></svg>