<svg xmlns="http://www.w3.org/2000/svg" width="16" height="16"><style>.icon-canvas-transparent{opacity:0;fill:#f6f6f6}.icon-vs-out{fill:#f6f6f6}.icon-vs-red{fill:#e51400}</style><path class="icon-canvas-transparent" d="M16 16H0V0h16v16z" id="canvas"/><path class="icon-vs-out" d="M8 10.828l-3 3L2.172 11l3-3-3-3L5 2.172l3 3 3-3L13.828 5l-3 3 3 3L11 13.828l-3-3z" id="outline"/><path class="icon-vs-red" d="M9.414 8l3 3L11 12.414l-3-3-3 3L3.586 11l3-3-3-3L5 3.586l3 3 3-3L12.414 5l-3 3z" id="iconBg"/></svg>